<svg xmlns="http://www.w3.org/2000/svg" viewBox="0 0 512 512">
  <rect width="512" height="512" rx="120" fill="#111111" />
  <circle cx="256" cy="256" r="170" fill="#c81d25" />
  <circle cx="256" cy="256" r="130" fill="#f7efe2" />
  <path
    d="M182 326V176h76c22 0 40 4 54 12 14 8 21 22 21 41 0 14-4 25-12 33-8 8-19 13-32 15 17 2 30 7 39 16 9 9 14 21 14 36 0 21-7 38-21 49-14 11-34 17-60 17H182zm62-91h33c11 0 19-2 24-7 6-5 9-12 9-22 0-9-3-16-9-21-6-5-14-7-25-7h-32v57zm0 71h38c12 0 21-3 28-8 7-6 10-14 10-25 0-10-3-18-10-24-6-6-15-9-27-9h-39v66z"
    fill="#111111"
  />
</svg>
